# xmcd
#
# Track frame offsets: 
#        182
#        14152
#        29100
#        42712
#        56152
#        70337
#        82860
#        94717
#        106285
#        118602
#        130490
#        145562
#        164622
#        183147
#        196275
#        209382
#        222135
#        234872
#        248602
#        261015
#
# Disc length: 3668 seconds
#
# Revision: 3
# Processed by: cddbd v1.5.2PL0 Copyright (c) Steve Scherf et al.
# Submitted via: ExactAudioCopy v1.0b1
#
DISCID=220e5214
DTITLE=Rex Stewart - Jazz Greats 63 Braggin' in Brass
DYEAR=1998
DGENRE=Jazz
TTITLE0=Sugar Foot Stomp
TTITLE1=Singin' the Blues
TTITLE2=Stingaree
TTITLE3=Baby Ain't You Satisfied
TTITLE4=Trumpet in Spades (Rex's Concerto)
TTITLE5=Rexatious
TTITLE6=Sugar Hill Shim Sham
TTITLE7=Tea and Trumpets
TTITLE8=Braggin' in Brass
TTITLE9=Fat Stuff Serenade
TTITLE10=Morning Glory
TTITLE11=Cherry
TTITLE12=Diga Diga Doo
TTITLE13=Ain't Misbehavin'
TTITLE14=Save It Pretty Mama
TTITLE15=Stompy Jones
TTITLE16=Main Stem
TTITLE17=Rexercise
TTITLE18=Someday Sweetheart - Alberta Hunter
TTITLE19=Sweet Lorraine - The Cootie Williams Sextet
EXTD=
EXTT0=
EXTT1=
EXTT2=
EXTT3=
EXTT4=
EXTT5=
EXTT6=
EXTT7=
EXTT8=
EXTT9=
EXTT10=
EXTT11=
EXTT12=
EXTT13=
EXTT14=
EXTT15=
EXTT16=
EXTT17=
EXTT18=
EXTT19=
PLAYORDER=
